<?xml version="1.0" encoding="UTF-8" standalone="no"?>
<!-- Created with Inkscape (http://www.inkscape.org/) -->

<svg
   width="210mm"
   height="210mm"
   viewBox="0 0 210 210"
   version="1.1"
   id="svg5"
   xml:space="preserve"
   inkscape:version="1.2.2 (732a01da63, 2022-12-09, custom)"
   sodipodi:docname="icon.svg"
   xmlns:inkscape="http://www.inkscape.org/namespaces/inkscape"
   xmlns:sodipodi="http://sodipodi.sourceforge.net/DTD/sodipodi-0.dtd"
   xmlns="http://www.w3.org/2000/svg"
   xmlns:svg="http://www.w3.org/2000/svg"><sodipodi:namedview
     id="namedview7"
     pagecolor="#ffffff"
     bordercolor="#000000"
     borderopacity="0.25"
     inkscape:showpageshadow="2"
     inkscape:pageopacity="0.0"
     inkscape:pagecheckerboard="0"
     inkscape:deskcolor="#d1d1d1"
     inkscape:document-units="mm"
     showgrid="false"
     inkscape:zoom="0.49638341"
     inkscape:cx="729.27498"
     inkscape:cy="323.33877"
     inkscape:window-width="1862"
     inkscape:window-height="1016"
     inkscape:window-x="0"
     inkscape:window-y="0"
     inkscape:window-maximized="1"
     inkscape:current-layer="svg5" /><defs
     id="defs2"><style
       id="style416">
      .cls-1 {
        fill: none;
      }

      .cls-2 {
        fill: #e95420;
      }

      .cls-3 {
        fill: #fff;
      }
    </style></defs><g
     inkscape:label="Layer 1"
     inkscape:groupmode="layer"
     id="layer1" /><g
     id="g505"
     transform="matrix(0.83191382,0,0,0.83191382,5.1051879e-7,-111.12379)"><g
       id="g444" /><g
       id="g472"><rect
         class="cls-2"
         width="252.42999"
         height="400"
         id="rect446"
         x="0"
         y="0" /><rect
         class="cls-1"
         x="30.049999"
         y="168.28999"
         width="192.33"
         height="192.33"
         id="rect448" /><g
         id="g470"><path
           class="cls-3"
           d="m 173.07,243.26 v -47.87 l -46.86,-27.1 -46.86,27.1 v 47.87 l -41.66,24.05 v 54.19 l 46.86,27.1 41.66,-24.16 41.66,24.05 46.86,-27.1 V 267.2 Z m -46.86,-62.77 36.36,21 v 41.77 l -36.36,21.11 -36.47,-21 V 201.6 Z m -41.66,155.92 -36.36,-21 v -42 l 36.24,-20.89 36.58,21.11 v 41.77 l -36.47,21 z m 119.68,-21 -36.36,21 -36.36,-21 v -41.77 l 36.58,-21.11 36.24,20.89 v 42 h -0.11 z"
           id="path450" /><polygon
           class="cls-3"
           points="171.49,296.1 171.49,319.69 191.47,307.84 191.47,284.35 "
           id="polygon452" /><polygon
           class="cls-3"
           points="187.86,278.14 167.76,266.97 147.78,278.48 167.88,289.89 "
           id="polygon454" /><polygon
           class="cls-3"
           points="144.05,284.69 144.28,308.18 164.38,319.92 164.38,296.1 "
           id="polygon456" /><polygon
           class="cls-3"
           points="104.54,278.14 84.44,266.97 64.46,278.48 84.55,289.89 "
           id="polygon458" /><polygon
           class="cls-3"
           points="60.84,284.69 60.96,308.18 81.05,319.92 81.05,296.1 "
           id="polygon460" /><polygon
           class="cls-3"
           points="88.17,296.1 88.17,319.69 108.26,307.84 108.26,284.35 "
           id="polygon462" /><polygon
           class="cls-3"
           points="126.1,217.85 146.09,206.11 126.1,195.05 106.12,206.56 "
           id="polygon464" /><polygon
           class="cls-3"
           points="102.62,236.26 122.6,247.89 122.6,224.06 102.51,212.66 "
           id="polygon466" /><polygon
           class="cls-3"
           points="129.72,224.06 129.72,247.77 149.81,235.92 149.81,212.21 "
           id="polygon468" /></g></g></g></svg>
